<?xml version="1.0" encoding="utf-8"?>
<!-- Generator: Adobe Illustrator 24.0.1, SVG Export Plug-In . SVG Version: 6.00 Build 0)  -->
<svg version="1.1" id="Layer_1" xmlns="http://www.w3.org/2000/svg" xmlns:xlink="http://www.w3.org/1999/xlink" x="0px" y="0px"
	 viewBox="0 0 256 256" style="enable-background:new 0 0 256 256;" xml:space="preserve">
<style type="text/css">
	.st0{fill:#414042;}
	.st1{fill:none;stroke:#FFFFFF;stroke-width:14;stroke-linecap:round;stroke-linejoin:round;stroke-miterlimit:10;}
	.st2{fill:#414042;stroke:#FFFFFF;stroke-miterlimit:10;}
	.st3{fill:#EF4136;}
	.st4{fill:#FFFFFF;}
	.st5{fill:#1D2155;}
	.st6{fill:#FBAD18;}
	.st7{opacity:0.61;fill:none;stroke:#808285;stroke-miterlimit:10;}
	.st8{opacity:0.72;fill:#C07B2A;}
	.st9{fill:#2C3996;}
	.st10{fill:#3664AF;}
	.st11{fill:#33AFE4;}
	.st12{fill:#1F2357;}
</style>
<g>
	<circle class="st5" cx="128" cy="128" r="128"/>
	<path class="st4" d="M70.3,140.1v57.59H49.88v-70.77c0-2.15,2.52-3.31,4.16-1.91l15.38,13.17C69.97,138.66,70.3,139.36,70.3,140.1z
		"/>
	<path class="st4" d="M214.41,119.71c-3.32-5.12-8.01-9.05-14.14-11.83c-6.13-2.78-13.38-4.15-21.67-4.15h-4.37
		c-0.62,0-1.22,0.23-1.68,0.64l-16.99,15.19l-17.05,15.3c-0.53,0.48-0.84,1.16-0.84,1.88l-0.05,61.18h22l0.05-26.14h18.93
		c8.29,0,15.54-1.37,21.67-4.11c6.13-2.74,10.82-6.67,14.14-11.79c3.32-5.16,4.98-11.18,4.98-18.07
		C219.39,130.82,217.73,124.8,214.41,119.71z M192.27,149.83c-3.39,2.81-8.37,4.22-14.89,4.22h-15.18c-1.39,0-2.52-1.13-2.52-2.52
		v-27.55c0-1.39,1.13-2.52,2.52-2.52h15.18c6.53,0,11.5,1.41,14.89,4.22c3.39,2.81,5.12,6.89,5.12,12.15
		C197.39,143.01,195.66,147.01,192.27,149.83z"/>
	<path class="st6" d="M206.12,30.78l-1.6,25.72c-0.54,6.13-3.39,11.79-7.93,15.87l-22.32,19.98l-17.71,15.83l-16.52,16.21
		l-2.42,2.16l-26.32,25.43c-2.38,2.13-5.48,3.32-8.69,3.32c-3.1,0-6.09-1.12-8.44-3.14L70.3,131.72l-16.34-14.03
		c-2.6-2.2-4.08-5.41-4.08-8.8v-4.22c0-4.51,3.64-8.15,8.15-8.15h4.4c3.5,0,6.85,1.33,9.41,3.75l31.2,29.39L206.12,30.78z"/>
</g>
</svg>
