<?xml version="1.0" encoding="utf-8"?>
<!-- Generator: Adobe Illustrator 24.0.1, SVG Export Plug-In . SVG Version: 6.00 Build 0)  -->
<svg version="1.1" id="Layer_1" xmlns="http://www.w3.org/2000/svg" xmlns:xlink="http://www.w3.org/1999/xlink" x="0px" y="0px"
	 viewBox="0 0 941.86 256" style="enable-background:new 0 0 941.86 256;" xml:space="preserve">
<style type="text/css">
	.st0{fill:#414042;}
	.st1{fill:none;stroke:#FFFFFF;stroke-width:14;stroke-linecap:round;stroke-linejoin:round;stroke-miterlimit:10;}
	.st2{fill:#414042;stroke:#FFFFFF;stroke-miterlimit:10;}
	.st3{fill:#EF4136;}
	.st4{fill:#FFFFFF;}
	.st5{fill:#1D2155;}
	.st6{fill:#FBAD18;}
	.st7{opacity:0.61;fill:none;stroke:#808285;stroke-miterlimit:10;}
	.st8{opacity:0.72;fill:#C07B2A;}
	.st9{fill:#2C3996;}
	.st10{fill:#3664AF;}
	.st11{fill:#33AFE4;}
	.st12{fill:#1F2357;}
</style>
<g>
	<path class="st5" d="M94.65,179.52L69.82,98.6h-0.63c0.89,16.46,1.34,27.44,1.34,32.94v47.97H50.98V76.38h29.77l24.41,78.87h0.42
		l25.89-78.87h29.77v103.14h-20.39V130.7c0-2.3,0.04-4.96,0.1-7.97c0.07-3,0.39-11.01,0.95-23.99h-0.63l-26.6,80.78H94.65z"/>
	<path class="st5" d="M250.35,179.52l-7.48-24.55h-37.6l-7.48,24.55h-23.56l36.4-103.56h26.74l36.54,103.56H250.35z M237.65,136.62
		c-6.91-22.25-10.81-34.82-11.68-37.74c-0.87-2.92-1.49-5.23-1.87-6.92c-1.55,6.03-6,20.91-13.34,44.66H237.65z"/>
	<path class="st5" d="M354.12,150.87c0,9.31-3.35,16.65-10.05,22.01c-6.7,5.36-16.03,8.04-27.97,8.04
		c-11.01,0-20.74-2.07-29.21-6.21V154.4c6.96,3.1,12.85,5.29,17.67,6.56c4.82,1.26,9.23,1.9,13.23,1.9c4.8,0,8.48-0.92,11.04-2.75
		c2.56-1.84,3.84-4.56,3.84-8.18c0-2.02-0.56-3.83-1.69-5.4c-1.13-1.58-2.79-3.09-4.97-4.55c-2.19-1.46-6.65-3.78-13.37-6.98
		c-6.3-2.97-11.03-5.81-14.18-8.54c-3.15-2.73-5.67-5.9-7.55-9.52c-1.88-3.62-2.82-7.85-2.82-12.7c0-9.12,3.09-16.3,9.28-21.52
		c6.18-5.22,14.73-7.83,25.64-7.83c5.36,0,10.48,0.63,15.34,1.9c4.87,1.27,9.96,3.06,15.27,5.36l-7.05,17
		c-5.5-2.26-10.05-3.84-13.65-4.73c-3.6-0.89-7.14-1.34-10.62-1.34c-4.14,0-7.32,0.97-9.52,2.89c-2.22,1.93-3.32,4.44-3.32,7.55
		c0,1.93,0.44,3.61,1.34,5.05c0.89,1.43,2.31,2.82,4.26,4.16c1.95,1.34,6.57,3.75,13.86,7.23c9.64,4.61,16.25,9.23,19.82,13.86
		C352.33,138.47,354.12,144.15,354.12,150.87z"/>
	<path class="st5" d="M416.44,179.52h-21.87V94.58h-28v-18.2h77.88v18.2h-28.01V179.52z"/>
	<path class="st5" d="M519.62,179.52l-7.47-24.55h-37.6l-7.48,24.55H443.5l36.4-103.56h26.73l36.55,103.56H519.62z M506.92,136.62
		c-6.91-22.25-10.8-34.82-11.67-37.74c-0.87-2.92-1.49-5.23-1.87-6.92c-1.55,6.03-5.99,20.91-13.33,44.66H506.92z"/>
	<path class="st5" d="M627.42,108.69c0,11.1-3.47,19.59-10.4,25.47c-6.94,5.88-16.8,8.82-29.59,8.82h-9.39v36.68h-21.87V76.52h32.95
		c12.51,0,22.02,2.69,28.53,8.08C624.16,89.98,627.42,98.01,627.42,108.69z M578.03,125.06h7.2c6.73,0,11.76-1.33,15.1-3.99
		c3.34-2.65,5.01-6.52,5.01-11.6c0-5.13-1.4-8.91-4.2-11.36c-2.8-2.45-7.18-3.67-13.15-3.67h-9.95V125.06z"/>
	<path class="st5" d="M693.91,76.43h-26.76l-36.39,103.54h23.54l5.73-18.78l1.77-5.78l5.51-18.35c0.43-1.34,0.8-2.68,1.23-4.01
		c0.91-2.94,1.77-5.67,2.57-8.29c5.08-16.64,8.29-27.4,9.53-32.32c0.37,1.71,1.02,4.01,1.87,6.9c0.7,2.3,3.26,10.65,7.71,24.99
		c0.8,2.68,1.71,5.57,2.68,8.67l0.27,0.86c0.32,1.07,0.7,2.14,1.02,3.21h-0.05l6.74,23.12l0.11,0.37l5.89,19.42h23.6L693.91,76.43z"
		/>
	<path class="st5" d="M810.67,151.05c0,9.31-3.35,16.65-10.05,22.01c-6.7,5.36-16.03,8.04-27.97,8.04
		c-11.01,0-20.74-2.07-29.21-6.21v-20.32c6.96,3.1,12.85,5.29,17.67,6.56c4.82,1.27,9.23,1.9,13.23,1.9c4.8,0,8.48-0.92,11.04-2.75
		c2.56-1.83,3.84-4.56,3.84-8.18c0-2.02-0.56-3.82-1.69-5.4c-1.13-1.58-2.79-3.09-4.97-4.55c-2.19-1.46-6.65-3.79-13.37-6.98
		c-6.3-2.96-11.03-5.81-14.18-8.54s-5.67-5.9-7.55-9.52c-1.88-3.62-2.82-7.85-2.82-12.7c0-9.12,3.09-16.3,9.28-21.52
		c6.18-5.22,14.73-7.83,25.64-7.83c5.36,0,10.48,0.63,15.34,1.9c4.87,1.27,9.96,3.06,15.27,5.36l-7.05,17
		c-5.5-2.26-10.05-3.83-13.65-4.73c-3.6-0.89-7.14-1.34-10.62-1.34c-4.14,0-7.32,0.96-9.52,2.89c-2.22,1.93-3.32,4.44-3.32,7.55
		c0,1.93,0.44,3.61,1.34,5.05c0.89,1.43,2.31,2.82,4.26,4.16c1.95,1.34,6.57,3.75,13.86,7.23c9.64,4.61,16.25,9.23,19.82,13.86
		S810.67,144.33,810.67,151.05z"/>
	<path class="st5" d="M890.88,150.87c0,9.31-3.35,16.65-10.05,22.01c-6.7,5.36-16.03,8.04-27.97,8.04
		c-11.01,0-20.74-2.07-29.21-6.21V154.4c6.96,3.1,12.85,5.29,17.67,6.56c4.82,1.27,9.23,1.9,13.23,1.9c4.8,0,8.48-0.92,11.04-2.75
		c2.56-1.83,3.84-4.56,3.84-8.18c0-2.02-0.56-3.82-1.69-5.4c-1.13-1.58-2.79-3.09-4.97-4.55c-2.19-1.46-6.65-3.79-13.37-6.98
		c-6.3-2.96-11.03-5.81-14.18-8.54c-3.15-2.73-5.67-5.9-7.55-9.52c-1.88-3.62-2.82-7.85-2.82-12.7c0-9.12,3.09-16.3,9.28-21.52
		c6.18-5.22,14.73-7.83,25.64-7.83c5.36,0,10.48,0.63,15.34,1.9c4.87,1.27,9.96,3.06,15.27,5.36l-7.05,17
		c-5.5-2.26-10.05-3.83-13.65-4.73c-3.6-0.89-7.14-1.34-10.62-1.34c-4.14,0-7.32,0.96-9.52,2.89c-2.22,1.93-3.32,4.44-3.32,7.55
		c0,1.93,0.44,3.61,1.34,5.05c0.89,1.43,2.31,2.82,4.26,4.16c1.95,1.34,6.57,3.75,13.86,7.23c9.64,4.61,16.25,9.23,19.82,13.86
		S890.88,144.15,890.88,150.87z"/>
	<path class="st5" d="M657.66,132.59c-0.43,1.34-0.8,2.68-1.23,4.01l3.64-12.31h0.16C659.43,126.91,658.57,129.64,657.66,132.59z"/>
	<path class="st6" d="M720.57,94.32l-0.87,13.95c-0.29,3.33-1.84,6.4-4.3,8.61l-12.11,10.84l-9.6,8.59l-8.96,8.79l-1.31,1.17
		l-14.27,13.79c-1.29,1.15-2.97,1.8-4.71,1.8c-1.68,0-3.31-0.61-4.58-1.7l-12.95-11.09l-8.86-7.61c-1.41-1.19-2.21-2.93-2.21-4.77
		v-2.29c0-2.45,1.98-4.42,4.42-4.42h2.39c1.9,0,3.72,0.72,5.11,2.03l16.92,15.94L720.57,94.32z"/>
</g>
</svg>
